<mxfile host="app.diagrams.net" modified="2022-05-27T17:18:03.326Z" agent="5.0 (Macintosh; Intel Mac OS X 10_15_7) AppleWebKit/537.36 (KHTML, like Gecko) Chrome/101.0.0.0 Safari/537.36" etag="U0eOVhcAAOY8k3GrNsIL" version="18.1.2" type="github">
  <diagram id="PqjqUF4lMm4DWgTbkE2Q" name="Page-1">
    <mxGraphModel dx="1181" dy="576" grid="1" gridSize="10" guides="1" tooltips="1" connect="1" arrows="1" fold="1" page="1" pageScale="1" pageWidth="850" pageHeight="1100" math="0" shadow="0">
      <root>
        <mxCell id="0" />
        <mxCell id="1" parent="0" />
        <mxCell id="nbz45QRoJxXWgqwZxlh2-2" value="Apple Message register" style="rounded=1;whiteSpace=wrap;html=1;" vertex="1" parent="1">
          <mxGeometry x="40" y="40" width="80" height="40" as="geometry" />
        </mxCell>
        <mxCell id="nbz45QRoJxXWgqwZxlh2-3" value="LogIn.jsp" style="rounded=1;whiteSpace=wrap;html=1;" vertex="1" parent="1">
          <mxGeometry x="160" y="40" width="80" height="40" as="geometry" />
        </mxCell>
        <mxCell id="nbz45QRoJxXWgqwZxlh2-4" value="auth server" style="rounded=1;whiteSpace=wrap;html=1;" vertex="1" parent="1">
          <mxGeometry x="280" y="40" width="80" height="40" as="geometry" />
        </mxCell>
        <mxCell id="nbz45QRoJxXWgqwZxlh2-5" value="j_spring_security_check" style="rounded=1;whiteSpace=wrap;html=1;" vertex="1" parent="1">
          <mxGeometry x="400" y="40" width="130" height="40" as="geometry" />
        </mxCell>
        <mxCell id="nbz45QRoJxXWgqwZxlh2-7" value="SuccessHandler" style="rounded=1;whiteSpace=wrap;html=1;" vertex="1" parent="1">
          <mxGeometry x="570" y="40" width="90" height="40" as="geometry" />
        </mxCell>
        <mxCell id="nbz45QRoJxXWgqwZxlh2-8" value="GWT user service" style="rounded=1;whiteSpace=wrap;html=1;" vertex="1" parent="1">
          <mxGeometry x="830" y="40" width="80" height="40" as="geometry" />
        </mxCell>
        <mxCell id="nbz45QRoJxXWgqwZxlh2-9" value="Change Password presenter" style="rounded=1;whiteSpace=wrap;html=1;" vertex="1" parent="1">
          <mxGeometry x="950" y="40" width="80" height="40" as="geometry" />
        </mxCell>
        <mxCell id="nbz45QRoJxXWgqwZxlh2-10" value="Portal.java&amp;nbsp;" style="rounded=1;whiteSpace=wrap;html=1;" vertex="1" parent="1">
          <mxGeometry x="710" y="40" width="80" height="40" as="geometry" />
        </mxCell>
        <mxCell id="nbz45QRoJxXWgqwZxlh2-11" value="" style="endArrow=none;dashed=1;html=1;dashPattern=1 3;strokeWidth=2;rounded=0;" edge="1" parent="1">
          <mxGeometry width="50" height="50" relative="1" as="geometry">
            <mxPoint x="80" y="760" as="sourcePoint" />
            <mxPoint x="80" y="75" as="targetPoint" />
          </mxGeometry>
        </mxCell>
        <mxCell id="nbz45QRoJxXWgqwZxlh2-12" value="" style="endArrow=none;dashed=1;html=1;dashPattern=1 3;strokeWidth=2;rounded=0;" edge="1" parent="1">
          <mxGeometry width="50" height="50" relative="1" as="geometry">
            <mxPoint x="200" y="760" as="sourcePoint" />
            <mxPoint x="199.70999999999998" y="74" as="targetPoint" />
          </mxGeometry>
        </mxCell>
        <mxCell id="nbz45QRoJxXWgqwZxlh2-13" value="" style="endArrow=none;dashed=1;html=1;dashPattern=1 3;strokeWidth=2;rounded=0;" edge="1" parent="1">
          <mxGeometry width="50" height="50" relative="1" as="geometry">
            <mxPoint x="320" y="760" as="sourcePoint" />
            <mxPoint x="319.71000000000004" y="73" as="targetPoint" />
          </mxGeometry>
        </mxCell>
        <mxCell id="nbz45QRoJxXWgqwZxlh2-14" value="" style="endArrow=none;dashed=1;html=1;dashPattern=1 3;strokeWidth=2;rounded=0;" edge="1" parent="1">
          <mxGeometry width="50" height="50" relative="1" as="geometry">
            <mxPoint x="465" y="750" as="sourcePoint" />
            <mxPoint x="464.71" y="73" as="targetPoint" />
          </mxGeometry>
        </mxCell>
        <mxCell id="nbz45QRoJxXWgqwZxlh2-15" value="" style="endArrow=none;dashed=1;html=1;dashPattern=1 3;strokeWidth=2;rounded=0;" edge="1" parent="1">
          <mxGeometry width="50" height="50" relative="1" as="geometry">
            <mxPoint x="620" y="760" as="sourcePoint" />
            <mxPoint x="614.71" y="73" as="targetPoint" />
          </mxGeometry>
        </mxCell>
        <mxCell id="nbz45QRoJxXWgqwZxlh2-16" value="" style="endArrow=none;dashed=1;html=1;dashPattern=1 3;strokeWidth=2;rounded=0;startArrow=none;" edge="1" parent="1" source="nbz45QRoJxXWgqwZxlh2-59">
          <mxGeometry width="50" height="50" relative="1" as="geometry">
            <mxPoint x="750" y="760" as="sourcePoint" />
            <mxPoint x="749.71" y="74" as="targetPoint" />
          </mxGeometry>
        </mxCell>
        <mxCell id="nbz45QRoJxXWgqwZxlh2-17" value="" style="endArrow=none;dashed=1;html=1;dashPattern=1 3;strokeWidth=2;rounded=0;" edge="1" parent="1">
          <mxGeometry width="50" height="50" relative="1" as="geometry">
            <mxPoint x="870" y="760" as="sourcePoint" />
            <mxPoint x="869.71" y="74" as="targetPoint" />
          </mxGeometry>
        </mxCell>
        <mxCell id="nbz45QRoJxXWgqwZxlh2-18" value="" style="endArrow=none;dashed=1;html=1;dashPattern=1 3;strokeWidth=2;rounded=0;startArrow=none;" edge="1" parent="1" source="nbz45QRoJxXWgqwZxlh2-61">
          <mxGeometry width="50" height="50" relative="1" as="geometry">
            <mxPoint x="990" y="760" as="sourcePoint" />
            <mxPoint x="989.71" y="75" as="targetPoint" />
          </mxGeometry>
        </mxCell>
        <mxCell id="nbz45QRoJxXWgqwZxlh2-19" value="" style="endArrow=classic;html=1;rounded=0;" edge="1" parent="1">
          <mxGeometry width="50" height="50" relative="1" as="geometry">
            <mxPoint x="80" y="150" as="sourcePoint" />
            <mxPoint x="200" y="150" as="targetPoint" />
          </mxGeometry>
        </mxCell>
        <mxCell id="nbz45QRoJxXWgqwZxlh2-20" value="&lt;font style=&quot;font-size: 8px;&quot;&gt;redirect to log in page with parameter&lt;/font&gt;" style="text;html=1;resizable=0;autosize=1;align=center;verticalAlign=middle;points=[];fillColor=none;strokeColor=none;rounded=0;" vertex="1" parent="1">
          <mxGeometry x="63" y="130" width="150" height="20" as="geometry" />
        </mxCell>
        <mxCell id="nbz45QRoJxXWgqwZxlh2-21" value="&lt;br&gt;" style="endArrow=none;html=1;rounded=0;fontSize=8;" edge="1" parent="1">
          <mxGeometry width="50" height="50" relative="1" as="geometry">
            <mxPoint x="199" y="179" as="sourcePoint" />
            <mxPoint x="260" y="179" as="targetPoint" />
          </mxGeometry>
        </mxCell>
        <mxCell id="nbz45QRoJxXWgqwZxlh2-22" value="" style="endArrow=none;html=1;rounded=0;fontSize=8;" edge="1" parent="1">
          <mxGeometry width="50" height="50" relative="1" as="geometry">
            <mxPoint x="260" y="230" as="sourcePoint" />
            <mxPoint x="260" y="179" as="targetPoint" />
          </mxGeometry>
        </mxCell>
        <mxCell id="nbz45QRoJxXWgqwZxlh2-23" value="" style="endArrow=classic;html=1;rounded=0;fontSize=8;" edge="1" parent="1">
          <mxGeometry width="50" height="50" relative="1" as="geometry">
            <mxPoint x="260" y="230" as="sourcePoint" />
            <mxPoint x="200" y="230" as="targetPoint" />
          </mxGeometry>
        </mxCell>
        <mxCell id="nbz45QRoJxXWgqwZxlh2-24" value="User input credential" style="text;html=1;resizable=0;autosize=1;align=center;verticalAlign=middle;points=[];fillColor=none;strokeColor=none;rounded=0;fontSize=8;" vertex="1" parent="1">
          <mxGeometry x="206" y="158" width="90" height="20" as="geometry" />
        </mxCell>
        <mxCell id="nbz45QRoJxXWgqwZxlh2-25" value="" style="endArrow=classic;html=1;rounded=0;fontSize=8;" edge="1" parent="1">
          <mxGeometry width="50" height="50" relative="1" as="geometry">
            <mxPoint x="200" y="265" as="sourcePoint" />
            <mxPoint x="320" y="265" as="targetPoint" />
          </mxGeometry>
        </mxCell>
        <mxCell id="nbz45QRoJxXWgqwZxlh2-26" value="Send request to auth server" style="text;html=1;resizable=0;autosize=1;align=center;verticalAlign=middle;points=[];fillColor=none;strokeColor=none;rounded=0;fontSize=8;" vertex="1" parent="1">
          <mxGeometry x="213" y="245" width="110" height="20" as="geometry" />
        </mxCell>
        <mxCell id="nbz45QRoJxXWgqwZxlh2-27" value="" style="endArrow=classic;html=1;rounded=0;fontSize=8;" edge="1" parent="1">
          <mxGeometry width="50" height="50" relative="1" as="geometry">
            <mxPoint x="319" y="305" as="sourcePoint" />
            <mxPoint x="199" y="305" as="targetPoint" />
          </mxGeometry>
        </mxCell>
        <mxCell id="nbz45QRoJxXWgqwZxlh2-28" value="return JWT token" style="text;html=1;resizable=0;autosize=1;align=center;verticalAlign=middle;points=[];fillColor=none;strokeColor=none;rounded=0;fontSize=8;" vertex="1" parent="1">
          <mxGeometry x="211" y="281" width="80" height="20" as="geometry" />
        </mxCell>
        <mxCell id="nbz45QRoJxXWgqwZxlh2-29" value="" style="endArrow=classic;html=1;rounded=0;fontSize=8;" edge="1" parent="1">
          <mxGeometry width="50" height="50" relative="1" as="geometry">
            <mxPoint x="199" y="360" as="sourcePoint" />
            <mxPoint x="470" y="360" as="targetPoint" />
          </mxGeometry>
        </mxCell>
        <mxCell id="nbz45QRoJxXWgqwZxlh2-30" value="POST to spring security&amp;nbsp; to validate the JWT toklen" style="text;html=1;resizable=0;autosize=1;align=center;verticalAlign=middle;points=[];fillColor=none;strokeColor=none;rounded=0;fontSize=8;" vertex="1" parent="1">
          <mxGeometry x="209" y="340" width="200" height="20" as="geometry" />
        </mxCell>
        <mxCell id="nbz45QRoJxXWgqwZxlh2-32" value="" style="endArrow=none;html=1;rounded=0;fontSize=8;" edge="1" parent="1">
          <mxGeometry width="50" height="50" relative="1" as="geometry">
            <mxPoint x="465" y="392" as="sourcePoint" />
            <mxPoint x="530" y="392" as="targetPoint" />
          </mxGeometry>
        </mxCell>
        <mxCell id="nbz45QRoJxXWgqwZxlh2-33" value="" style="endArrow=none;html=1;rounded=0;fontSize=8;" edge="1" parent="1">
          <mxGeometry width="50" height="50" relative="1" as="geometry">
            <mxPoint x="530" y="442" as="sourcePoint" />
            <mxPoint x="530" y="392" as="targetPoint" />
          </mxGeometry>
        </mxCell>
        <mxCell id="nbz45QRoJxXWgqwZxlh2-34" value="" style="endArrow=classic;html=1;rounded=0;fontSize=8;" edge="1" parent="1">
          <mxGeometry width="50" height="50" relative="1" as="geometry">
            <mxPoint x="531" y="441" as="sourcePoint" />
            <mxPoint x="461" y="441" as="targetPoint" />
          </mxGeometry>
        </mxCell>
        <mxCell id="nbz45QRoJxXWgqwZxlh2-35" value="validate the auth token" style="text;html=1;resizable=0;autosize=1;align=center;verticalAlign=middle;points=[];fillColor=none;strokeColor=none;rounded=0;fontSize=8;" vertex="1" parent="1">
          <mxGeometry x="460" y="370" width="100" height="20" as="geometry" />
        </mxCell>
        <mxCell id="nbz45QRoJxXWgqwZxlh2-36" value="" style="endArrow=classic;html=1;rounded=0;fontSize=8;" edge="1" parent="1">
          <mxGeometry width="50" height="50" relative="1" as="geometry">
            <mxPoint x="464" y="480" as="sourcePoint" />
            <mxPoint x="620" y="479" as="targetPoint" />
          </mxGeometry>
        </mxCell>
        <mxCell id="nbz45QRoJxXWgqwZxlh2-37" value="forward to success handler" style="text;html=1;resizable=0;autosize=1;align=center;verticalAlign=middle;points=[];fillColor=none;strokeColor=none;rounded=0;fontSize=8;" vertex="1" parent="1">
          <mxGeometry x="480" y="460" width="110" height="20" as="geometry" />
        </mxCell>
        <mxCell id="nbz45QRoJxXWgqwZxlh2-38" value="" style="endArrow=classic;html=1;rounded=0;fontSize=8;" edge="1" parent="1">
          <mxGeometry width="50" height="50" relative="1" as="geometry">
            <mxPoint x="614" y="497" as="sourcePoint" />
            <mxPoint x="750" y="497" as="targetPoint" />
          </mxGeometry>
        </mxCell>
        <mxCell id="nbz45QRoJxXWgqwZxlh2-39" value="forward to portal home page" style="text;html=1;resizable=0;autosize=1;align=center;verticalAlign=middle;points=[];fillColor=none;strokeColor=none;rounded=0;fontSize=8;" vertex="1" parent="1">
          <mxGeometry x="615" y="476" width="120" height="20" as="geometry" />
        </mxCell>
        <mxCell id="nbz45QRoJxXWgqwZxlh2-41" value="" style="endArrow=classic;html=1;rounded=0;fontSize=8;" edge="1" parent="1">
          <mxGeometry width="50" height="50" relative="1" as="geometry">
            <mxPoint x="750" y="527" as="sourcePoint" />
            <mxPoint x="870" y="527" as="targetPoint" />
          </mxGeometry>
        </mxCell>
        <mxCell id="nbz45QRoJxXWgqwZxlh2-42" value="get user status" style="text;html=1;resizable=0;autosize=1;align=center;verticalAlign=middle;points=[];fillColor=none;strokeColor=none;rounded=0;fontSize=8;" vertex="1" parent="1">
          <mxGeometry x="764" y="506" width="70" height="20" as="geometry" />
        </mxCell>
        <mxCell id="nbz45QRoJxXWgqwZxlh2-43" value="" style="endArrow=classic;html=1;rounded=0;fontSize=8;" edge="1" parent="1">
          <mxGeometry width="50" height="50" relative="1" as="geometry">
            <mxPoint x="870" y="559" as="sourcePoint" />
            <mxPoint x="750" y="559" as="targetPoint" />
          </mxGeometry>
        </mxCell>
        <mxCell id="nbz45QRoJxXWgqwZxlh2-44" value="user password expire" style="text;html=1;resizable=0;autosize=1;align=center;verticalAlign=middle;points=[];fillColor=none;strokeColor=none;rounded=0;fontSize=8;" vertex="1" parent="1">
          <mxGeometry x="750" y="540" width="90" height="20" as="geometry" />
        </mxCell>
        <mxCell id="nbz45QRoJxXWgqwZxlh2-45" value="" style="endArrow=classic;html=1;rounded=0;fontSize=8;" edge="1" parent="1">
          <mxGeometry width="50" height="50" relative="1" as="geometry">
            <mxPoint x="750" y="600" as="sourcePoint" />
            <mxPoint x="990" y="600" as="targetPoint" />
          </mxGeometry>
        </mxCell>
        <mxCell id="nbz45QRoJxXWgqwZxlh2-46" value="log out&amp;nbsp; and&amp;nbsp; redirect to change password&amp;nbsp; page" style="text;html=1;resizable=0;autosize=1;align=center;verticalAlign=middle;points=[];fillColor=none;strokeColor=none;rounded=0;fontSize=8;" vertex="1" parent="1">
          <mxGeometry x="753" y="580" width="180" height="20" as="geometry" />
        </mxCell>
        <mxCell id="nbz45QRoJxXWgqwZxlh2-47" value="" style="endArrow=none;html=1;rounded=0;fontSize=8;" edge="1" parent="1">
          <mxGeometry width="50" height="50" relative="1" as="geometry">
            <mxPoint x="990" y="630" as="sourcePoint" />
            <mxPoint x="1080" y="630" as="targetPoint" />
          </mxGeometry>
        </mxCell>
        <mxCell id="nbz45QRoJxXWgqwZxlh2-48" value="" style="endArrow=none;html=1;rounded=0;fontSize=8;" edge="1" parent="1">
          <mxGeometry width="50" height="50" relative="1" as="geometry">
            <mxPoint x="1080" y="680" as="sourcePoint" />
            <mxPoint x="1080" y="630" as="targetPoint" />
          </mxGeometry>
        </mxCell>
        <mxCell id="nbz45QRoJxXWgqwZxlh2-49" value="" style="endArrow=classic;html=1;rounded=0;fontSize=8;" edge="1" parent="1">
          <mxGeometry width="50" height="50" relative="1" as="geometry">
            <mxPoint x="1080" y="680" as="sourcePoint" />
            <mxPoint x="990" y="680" as="targetPoint" />
          </mxGeometry>
        </mxCell>
        <mxCell id="nbz45QRoJxXWgqwZxlh2-50" value="User change the passwod" style="text;html=1;resizable=0;autosize=1;align=center;verticalAlign=middle;points=[];fillColor=none;strokeColor=none;rounded=0;fontSize=8;" vertex="1" parent="1">
          <mxGeometry x="990" y="610" width="110" height="20" as="geometry" />
        </mxCell>
        <mxCell id="nbz45QRoJxXWgqwZxlh2-51" value="" style="endArrow=classic;html=1;rounded=0;fontSize=8;" edge="1" parent="1">
          <mxGeometry width="50" height="50" relative="1" as="geometry">
            <mxPoint x="990" y="720" as="sourcePoint" />
            <mxPoint x="200" y="720" as="targetPoint" />
          </mxGeometry>
        </mxCell>
        <mxCell id="nbz45QRoJxXWgqwZxlh2-52" value="redirect to login page" style="text;html=1;resizable=0;autosize=1;align=center;verticalAlign=middle;points=[];fillColor=none;strokeColor=none;rounded=0;fontSize=8;" vertex="1" parent="1">
          <mxGeometry x="465" y="700" width="90" height="20" as="geometry" />
        </mxCell>
        <mxCell id="nbz45QRoJxXWgqwZxlh2-53" value="" style="rounded=0;whiteSpace=wrap;html=1;fontSize=8;" vertex="1" parent="1">
          <mxGeometry x="190" y="170" width="20" height="200" as="geometry" />
        </mxCell>
        <mxCell id="nbz45QRoJxXWgqwZxlh2-55" value="" style="rounded=0;whiteSpace=wrap;html=1;fontSize=8;" vertex="1" parent="1">
          <mxGeometry x="455" y="390" width="20" height="100" as="geometry" />
        </mxCell>
        <mxCell id="nbz45QRoJxXWgqwZxlh2-56" value="" style="rounded=0;whiteSpace=wrap;html=1;fontSize=8;" vertex="1" parent="1">
          <mxGeometry x="610" y="470" width="10" height="40" as="geometry" />
        </mxCell>
        <mxCell id="nbz45QRoJxXWgqwZxlh2-59" value="" style="rounded=0;whiteSpace=wrap;html=1;fontSize=8;" vertex="1" parent="1">
          <mxGeometry x="745" y="520" width="10" height="90" as="geometry" />
        </mxCell>
        <mxCell id="nbz45QRoJxXWgqwZxlh2-60" value="" style="endArrow=none;dashed=1;html=1;dashPattern=1 3;strokeWidth=2;rounded=0;" edge="1" parent="1" target="nbz45QRoJxXWgqwZxlh2-59">
          <mxGeometry width="50" height="50" relative="1" as="geometry">
            <mxPoint x="750" y="760" as="sourcePoint" />
            <mxPoint x="749.7100000000003" y="74" as="targetPoint" />
          </mxGeometry>
        </mxCell>
        <mxCell id="nbz45QRoJxXWgqwZxlh2-61" value="" style="rounded=0;whiteSpace=wrap;html=1;fontSize=8;" vertex="1" parent="1">
          <mxGeometry x="985" y="590" width="10" height="140" as="geometry" />
        </mxCell>
        <mxCell id="nbz45QRoJxXWgqwZxlh2-62" value="" style="endArrow=none;dashed=1;html=1;dashPattern=1 3;strokeWidth=2;rounded=0;" edge="1" parent="1" target="nbz45QRoJxXWgqwZxlh2-61">
          <mxGeometry width="50" height="50" relative="1" as="geometry">
            <mxPoint x="990" y="760" as="sourcePoint" />
            <mxPoint x="989.71" y="75" as="targetPoint" />
          </mxGeometry>
        </mxCell>
      </root>
    </mxGraphModel>
  </diagram>
</mxfile>
